<svg width="595" height="450" viewBox="0 0 595 450" fill="none" xmlns="http://www.w3.org/2000/svg">
<g clip-path="url(#clip0_1127_16917)">
<path d="M173.09 204.25C164.65 268.59 201.39 315.37 208.52 324.1V330.35C208.52 330.55 208.52 330.76 208.52 330.96L208.34 360.96L178.88 360.68L128.6 360.62C128.6 296.42 128.6 232.22 128.6 168.02L62.42 168.2L103.67 88.14H208.73C208.73 100.36 208.73 112.58 208.73 124.8C198.78 136.54 178.37 164 173.09 204.25Z" fill="white"/>
<path d="M278.68 232.42L267.81 207.26H274.66L278.59 217.5C279.65 220.5 280.67 223.26 281.8 226.31H282C283.14 223.26 284.28 220.48 285.33 217.5L289.26 207.26H296L285.13 232.42V247.32H278.73L278.68 232.42Z" fill="white"/>
<path d="M299.32 207.26H321.05V213.26H305.72V223.5H318.72V229.5H305.72V241.36H321.6V247.36H299.32V207.26Z" fill="white"/>
<path d="M336.09 207.26H343.6L355.37 247.32H348.59L343.09 226C341.94 221.77 340.88 217.2 339.82 212.8H339.6C338.6 217.23 337.55 221.8 336.4 226L330.85 247.32H324.32L336.09 207.26ZM331.27 230.89H348.27V236.46H331.27V230.89Z" fill="white"/>
<path d="M359.5 207.26H371.67C379.17 207.26 384.96 210.2 384.96 219.14C384.96 227.76 379.17 231.66 371.67 231.66H365.9V247.32H359.5V207.26ZM371 226C375.95 226 378.64 223.72 378.64 219.16C378.64 214.6 376 213 371 213H365.9V226H371ZM370.46 229.78L375.1 225.55L386.37 247.34H379.17L370.46 229.78Z" fill="white"/>
<path d="M179.3 224.43C179.3 246.98 186.04 268.69 186.04 268.69C191.11 284.797 198.921 299.909 209.13 313.36L209.05 309.99C209.528 306.977 210.544 304.074 212.05 301.42C212.66 300.36 218 291.36 227.92 289.49C228.776 289.335 229.641 289.231 230.51 289.18C239.99 288.64 259.14 288.86 271.32 289.06C259.312 278.65 250.4 265.137 245.56 250C245.56 250 241.77 237.25 241.77 224.77C241.771 202.502 250.475 181.117 266.025 165.179C281.575 149.24 302.739 140.011 325 139.46V76.62C286.167 77.1796 249.114 92.9984 221.85 120.657C194.586 148.316 179.301 185.593 179.3 224.43Z" fill="white"/>
<path d="M329 76.62V139.46C351.305 139.941 372.535 149.139 388.141 165.083C403.747 181.027 412.487 202.449 412.49 224.76C412.49 237.38 408.66 250.14 408.66 250.14C403.452 265.552 394.05 279.206 381.51 289.57C388.424 287.58 395.75 287.51 402.7 289.37C410.91 291.74 410.7 295.37 417 296.59C430.17 299.23 438.93 285.53 448.75 289.52C451.64 290.851 453.985 293.135 455.39 295.99C458.767 291.487 461.653 286.636 464 281.52C465.7 277.64 467.82 271.31 468 270.67C468.29 269.8 468.56 268.92 468.56 268.92C468.9 267.85 469.49 265.92 470.13 263.57C470.68 261.57 471.32 259 471.97 256.03C472.29 253.65 472.74 250.15 473.2 245.9C474.249 238.788 474.85 231.617 475 224.43C475 185.541 459.675 148.218 432.346 120.55C405.017 92.8824 367.886 77.0988 329 76.62Z" fill="white"/>
<path d="M228.22 362.76L219.74 362.65V368.14C219.951 368.473 220.211 368.773 220.51 369.03C220.813 369.282 221.15 369.49 221.51 369.65H226.39C226.819 369.542 227.214 369.329 227.54 369.03C227.797 368.787 228.001 368.495 228.14 368.17L228.22 362.76Z" fill="white"/>
<path d="M271.2 362.76L262.72 362.65V368.14C262.927 368.473 263.183 368.773 263.48 369.03C263.782 369.283 264.119 369.492 264.48 369.65H269.35C269.78 369.544 270.175 369.331 270.5 369.03C270.762 368.79 270.97 368.497 271.11 368.17L271.2 362.76Z" fill="white"/>
<path d="M271 305.18C268.33 301.55 264.666 298.771 260.45 297.18H230.62C226.155 298.276 222.195 300.857 219.39 304.5C217.583 306.911 216.358 309.707 215.81 312.67L215.47 361H275.39V317.78C275.19 313.241 273.663 308.861 271 305.18ZM226.79 306.54C226.805 306.197 226.896 305.862 227.057 305.56C227.218 305.257 227.444 304.994 227.72 304.79C227.8 304.736 227.887 304.696 227.98 304.67H262.19C262.389 304.651 262.589 304.685 262.77 304.77C262.966 304.877 263.129 305.037 263.241 305.231C263.352 305.425 263.407 305.646 263.4 305.87V309.69H226.76L226.79 306.54ZM225 354.32C224.227 354.32 223.471 354.091 222.828 353.661C222.185 353.231 221.684 352.621 221.388 351.906C221.092 351.192 221.014 350.406 221.165 349.647C221.316 348.889 221.688 348.192 222.235 347.645C222.782 347.098 223.479 346.726 224.237 346.575C224.996 346.424 225.782 346.502 226.496 346.798C227.211 347.093 227.821 347.595 228.251 348.238C228.681 348.881 228.91 349.637 228.91 350.41C228.91 351.447 228.498 352.441 227.765 353.175C227.031 353.908 226.037 354.32 225 354.32ZM265 354.32C264.227 354.32 263.471 354.091 262.828 353.661C262.185 353.231 261.684 352.621 261.388 351.906C261.092 351.192 261.014 350.406 261.165 349.647C261.316 348.889 261.688 348.192 262.235 347.645C262.782 347.098 263.479 346.726 264.237 346.575C264.996 346.424 265.782 346.502 266.496 346.798C267.211 347.093 267.821 347.595 268.251 348.238C268.681 348.881 268.91 349.637 268.91 350.41C268.91 351.447 268.498 352.441 267.765 353.175C267.032 353.908 266.037 354.32 265 354.32ZM270.3 340.76H219.56L219.83 322.34C219.908 321.555 220.125 320.79 220.47 320.08C223.05 314.92 231.98 315.37 232.38 315.39H257.6C263.43 315.3 268.28 317.39 269.78 320.97C270.119 321.798 270.29 322.685 270.28 323.58L270.3 340.76Z" fill="white"/>
<path d="M230.62 372C231.01 372.62 235.62 379.53 244.15 379.85C247.151 379.945 250.123 379.238 252.76 377.802C255.396 376.366 257.602 374.253 259.15 371.68C259.32 371.57 260.34 370.91 261 371.3C261.66 371.69 261.58 372.57 261.58 372.9C261.58 375.37 254.25 383.12 244.41 383.17C235.55 383.17 228.93 377.02 228.13 374.05C227.99 373.52 227.65 372.27 228.26 371.75C228.87 371.23 230.51 372 230.62 372Z" fill="white"/>
<path d="M290.94 358.61V327.43C291.497 325.081 292.837 322.992 294.739 321.506C296.641 320.021 298.992 319.226 301.406 319.254C303.82 319.282 306.152 320.131 308.019 321.66C309.886 323.19 311.177 325.309 311.68 327.67V358.88C311.997 359.665 312.556 360.329 313.275 360.776C313.993 361.224 314.836 361.432 315.68 361.37C316.419 361.309 317.126 361.044 317.723 360.604C318.32 360.164 318.783 359.567 319.06 358.88V327.48C318.706 323.124 316.738 319.056 313.541 316.076C310.344 313.096 306.149 311.417 301.778 311.37C297.408 311.322 293.177 312.909 289.916 315.819C286.655 318.729 284.598 322.752 284.15 327.1V358.63C284.305 359.422 284.731 360.135 285.354 360.648C285.977 361.16 286.758 361.441 287.565 361.441C288.372 361.441 289.153 361.16 289.776 360.648C290.399 360.135 290.825 359.422 290.98 358.63L290.94 358.61Z" fill="white"/>
<path d="M404.81 314.23V345.41C405.367 347.759 406.707 349.848 408.609 351.334C410.511 352.819 412.862 353.614 415.276 353.586C417.69 353.558 420.022 352.709 421.889 351.18C423.756 349.65 425.047 347.531 425.55 345.17V314C425.867 313.215 426.426 312.551 427.144 312.104C427.863 311.656 428.706 311.448 429.55 311.51C430.283 311.576 430.984 311.844 431.576 312.283C432.167 312.723 432.625 313.317 432.9 314V345.4C432.534 349.749 430.559 353.805 427.363 356.776C424.166 359.746 419.977 361.419 415.613 361.467C411.249 361.514 407.024 359.933 403.764 357.032C400.503 354.132 398.441 350.12 397.98 345.78V314.21C398.135 313.418 398.561 312.705 399.184 312.192C399.806 311.68 400.588 311.399 401.395 311.399C402.202 311.399 402.983 311.68 403.606 312.192C404.229 312.705 404.655 313.418 404.81 314.21V314.23Z" fill="white"/>
<path d="M351.83 312.44C351.394 312.629 351 312.902 350.671 313.245C350.343 313.587 350.085 313.992 349.915 314.436C349.745 314.879 349.664 315.352 349.679 315.826C349.694 316.301 349.803 316.768 350 317.2L367.88 358.48C368.062 359.303 368.515 360.042 369.167 360.577C369.818 361.113 370.63 361.415 371.473 361.434C372.316 361.454 373.142 361.19 373.817 360.685C374.493 360.181 374.98 359.464 375.2 358.65C381.147 344.517 387.103 330.39 393.07 316.27C393.224 315.44 393.082 314.582 392.67 313.844C392.258 313.107 391.601 312.538 390.813 312.234C390.025 311.93 389.155 311.911 388.355 312.181C387.555 312.45 386.874 312.991 386.43 313.71L371.11 348.44C366.203 337.027 361.297 325.62 356.39 314.22C356 313.398 355.311 312.756 354.463 312.425C353.616 312.095 352.674 312.1 351.83 312.44Z" fill="white"/>
<path d="M447.58 315.61V358.18C447.379 359.064 446.883 359.853 446.174 360.418C445.466 360.983 444.586 361.291 443.68 361.291C442.774 361.291 441.894 360.983 441.186 360.418C440.477 359.853 439.981 359.064 439.78 358.18V315.48C439.944 314.555 440.432 313.718 441.157 313.12C441.882 312.523 442.796 312.203 443.735 312.219C444.675 312.234 445.578 312.584 446.283 313.206C446.987 313.827 447.447 314.68 447.58 315.61Z" fill="white"/>
<path d="M443.55 295.42C442.891 295.45 442.246 295.619 441.656 295.915C441.067 296.212 440.547 296.629 440.13 297.14C439.97 298.025 439.876 298.921 439.85 299.82C439.824 300.823 439.881 301.826 440.02 302.82C440.302 303.575 440.799 304.231 441.449 304.707C442.099 305.184 442.875 305.459 443.68 305.5C444.385 305.498 445.079 305.325 445.703 304.996C446.326 304.666 446.861 304.191 447.26 303.61C447.532 302.238 447.623 300.836 447.53 299.44C447.483 298.629 447.373 297.823 447.2 297.03C446.746 296.511 446.184 296.099 445.553 295.82C444.923 295.542 444.239 295.406 443.55 295.42Z" fill="white"/>
<path d="M355.18 365.35C354.71 365.35 354.38 365.94 354.32 366.35C354.22 367.08 354.79 367.91 355.32 367.89C355.67 367.89 355.91 367.49 355.99 367.38C356.117 367.161 356.184 366.913 356.184 366.66C356.184 366.407 356.117 366.158 355.99 365.94C356 365.89 355.66 365.33 355.18 365.35Z" fill="white"/>
<path d="M354.58 371V381.73C354.571 381.914 354.632 382.095 354.751 382.236C354.869 382.377 355.037 382.467 355.22 382.49C355.326 382.5 355.433 382.487 355.534 382.454C355.635 382.42 355.728 382.366 355.807 382.294C355.886 382.223 355.949 382.136 355.992 382.039C356.036 381.942 356.059 381.836 356.06 381.73V371C356.074 370.889 356.064 370.775 356.032 370.668C355.999 370.56 355.944 370.461 355.871 370.376C355.797 370.291 355.707 370.223 355.605 370.175C355.503 370.128 355.392 370.102 355.28 370.1C355.174 370.111 355.071 370.143 354.978 370.195C354.885 370.247 354.803 370.317 354.738 370.401C354.673 370.485 354.625 370.581 354.598 370.684C354.571 370.787 354.565 370.895 354.58 371Z" fill="white"/>
<path d="M446.55 365.35C446.08 365.35 445.75 365.94 445.69 366.35C445.59 367.08 446.16 367.91 446.69 367.89C447.05 367.89 447.29 367.49 447.36 367.38C447.487 367.161 447.554 366.913 447.554 366.66C447.554 366.407 447.487 366.158 447.36 365.94C447.35 365.89 447 365.33 446.55 365.35Z" fill="white"/>
<path d="M445.81 371V381.73C445.809 381.922 445.881 382.106 446.011 382.247C446.141 382.388 446.319 382.475 446.51 382.49C446.622 382.505 446.735 382.497 446.844 382.467C446.952 382.436 447.053 382.384 447.141 382.313C447.228 382.241 447.299 382.153 447.351 382.052C447.403 381.952 447.433 381.842 447.44 381.73V371C447.45 370.884 447.435 370.766 447.397 370.656C447.358 370.546 447.297 370.445 447.216 370.36C447.136 370.275 447.039 370.208 446.931 370.163C446.823 370.118 446.707 370.097 446.59 370.1C446.479 370.105 446.369 370.132 446.269 370.181C446.169 370.229 446.079 370.298 446.006 370.382C445.933 370.466 445.878 370.565 445.845 370.671C445.811 370.777 445.799 370.889 445.81 371Z" fill="white"/>
<path d="M352.29 365.84C352.23 365.668 352.115 365.521 351.964 365.42C351.812 365.319 351.632 365.27 351.45 365.28C351.302 365.296 351.16 365.351 351.039 365.439C350.918 365.526 350.822 365.644 350.76 365.78V367.13H345.64C344.88 367.13 344.42 367.74 344.49 368.13C344.572 368.362 344.737 368.555 344.953 368.674C345.169 368.792 345.42 368.826 345.66 368.77H350.87C350.87 369.52 350.87 370.27 350.87 371.02C350.282 370.57 349.606 370.249 348.886 370.076C348.166 369.904 347.418 369.885 346.69 370.02C345.83 370.192 345.05 370.641 344.47 371.3C343.951 371.903 343.626 372.649 343.54 373.44C343.54 375.44 343.59 377.44 343.62 379.44C343.774 380.182 344.119 380.871 344.62 381.44C345.268 382.102 346.101 382.552 347.01 382.73C347.919 382.909 348.86 382.807 349.71 382.44C350.406 382.092 351.01 381.582 351.471 380.955C351.931 380.327 352.236 379.599 352.36 378.83C352.373 374.503 352.35 370.173 352.29 365.84ZM350.77 378.35C350.771 379.067 350.495 379.757 349.999 380.276C349.504 380.794 348.827 381.101 348.11 381.132C347.394 381.163 346.693 380.916 346.154 380.442C345.615 379.968 345.281 379.305 345.22 378.59C345.22 376.98 345.22 375.38 345.22 373.77C345.493 372.96 346.056 372.28 346.8 371.86C347.122 371.677 347.481 371.567 347.85 371.54C348.409 371.532 348.958 371.685 349.431 371.981C349.905 372.277 350.283 372.704 350.52 373.21C350.64 373.48 350.718 373.766 350.75 374.06L350.77 378.35Z" fill="white"/>
<path d="M369.54 370C368.455 369.949 367.387 370.277 366.518 370.929C365.649 371.58 365.035 372.514 364.78 373.57V378.97C364.932 379.949 365.395 380.854 366.101 381.549C366.807 382.244 367.719 382.693 368.7 382.83C369.305 382.857 369.908 382.76 370.474 382.545C371.04 382.33 371.556 382.002 371.99 381.58L372.05 382.16C372.298 382.403 372.632 382.54 372.98 382.54C373.305 382.528 373.613 382.392 373.84 382.16V373.7C373.63 372.696 373.095 371.789 372.318 371.12C371.54 370.451 370.564 370.058 369.54 370ZM371.97 378.39C371.971 379.107 371.695 379.797 371.199 380.316C370.704 380.834 370.027 381.141 369.31 381.172C368.594 381.203 367.893 380.956 367.354 380.482C366.815 380.008 366.481 379.345 366.42 378.63V373.81C366.688 372.998 367.252 372.316 368 371.9C368.321 371.715 368.68 371.606 369.05 371.58C369.607 371.571 370.156 371.724 370.628 372.021C371.1 372.317 371.476 372.744 371.71 373.25C371.835 373.518 371.912 373.806 371.94 374.1L371.97 378.39Z" fill="white"/>
<path d="M375.7 381.89V373.76C375.872 372.679 376.432 371.698 377.275 370.999C378.117 370.3 379.185 369.932 380.28 369.963C381.374 369.993 382.42 370.421 383.222 371.165C384.024 371.91 384.528 372.921 384.64 374.01V381.67C384.622 381.881 384.538 382.08 384.4 382.24C384.261 382.4 384.076 382.512 383.87 382.56C383.605 382.56 383.35 382.455 383.163 382.267C382.975 382.08 382.87 381.825 382.87 381.56V374.13C382.798 373.475 382.493 372.868 382.011 372.42C381.528 371.972 380.9 371.713 380.242 371.689C379.584 371.666 378.94 371.881 378.427 372.294C377.914 372.708 377.567 373.292 377.45 373.94V381.79C377.423 381.988 377.329 382.172 377.183 382.309C377.037 382.446 376.849 382.529 376.649 382.543C376.449 382.557 376.251 382.502 376.087 382.386C375.923 382.271 375.804 382.103 375.75 381.91L375.7 381.89Z" fill="white"/>
<path d="M443.52 370.7V378.84C443.331 379.908 442.764 380.873 441.923 381.558C441.082 382.243 440.022 382.602 438.938 382.571C437.853 382.539 436.816 382.119 436.016 381.386C435.216 380.653 434.707 379.657 434.58 378.58V370.92C434.598 370.709 434.682 370.51 434.82 370.35C434.959 370.19 435.144 370.078 435.35 370.03C435.615 370.03 435.87 370.135 436.057 370.323C436.245 370.51 436.35 370.765 436.35 371.03V378.46C436.413 379.122 436.715 379.738 437.2 380.194C437.684 380.649 438.317 380.913 438.982 380.937C439.646 380.96 440.296 380.741 440.811 380.32C441.326 379.899 441.67 379.306 441.78 378.65V370.8C441.801 370.599 441.892 370.411 442.037 370.27C442.182 370.129 442.373 370.044 442.575 370.03C442.776 370.016 442.977 370.073 443.141 370.192C443.304 370.311 443.421 370.484 443.47 370.68L443.52 370.7Z" fill="white"/>
<path d="M398.27 379.47L402 370.6C402.068 370.45 402.166 370.316 402.288 370.207C402.41 370.097 402.554 370.013 402.71 369.962C402.865 369.91 403.03 369.891 403.194 369.906C403.358 369.922 403.516 369.97 403.66 370.05C403.836 370.237 403.944 370.477 403.968 370.733C403.991 370.988 403.929 371.244 403.79 371.46L399.23 381.89C399.198 382.108 399.088 382.307 398.921 382.451C398.754 382.596 398.541 382.675 398.32 382.675C398.099 382.675 397.886 382.596 397.719 382.451C397.552 382.307 397.442 382.108 397.41 381.89C395.817 378.417 394.23 374.94 392.65 371.46C392.536 371.219 392.522 370.942 392.612 370.691C392.702 370.439 392.889 370.234 393.13 370.12C393.371 370.006 393.648 369.992 393.899 370.082C394.151 370.172 394.356 370.359 394.47 370.6L398.27 379.47Z" fill="white"/>
<path d="M427.77 379.47L431.5 370.6C431.568 370.45 431.666 370.316 431.788 370.207C431.91 370.097 432.054 370.013 432.21 369.962C432.365 369.91 432.53 369.891 432.694 369.906C432.858 369.922 433.016 369.97 433.16 370.05C433.336 370.237 433.444 370.477 433.468 370.733C433.491 370.988 433.429 371.244 433.29 371.46L428.73 381.89C428.698 382.108 428.588 382.307 428.421 382.451C428.254 382.596 428.041 382.675 427.82 382.675C427.599 382.675 427.386 382.596 427.219 382.451C427.052 382.307 426.942 382.108 426.91 381.89C425.317 378.417 423.73 374.94 422.15 371.46C422.036 371.219 422.022 370.942 422.112 370.691C422.202 370.439 422.389 370.234 422.63 370.12C422.871 370.006 423.148 369.992 423.399 370.082C423.651 370.172 423.856 370.359 423.97 370.6L427.77 379.47Z" fill="white"/>
<path d="M414.26 374C414.13 372.937 413.643 371.95 412.878 371.2C412.114 370.451 411.117 369.984 410.051 369.876C408.986 369.768 407.916 370.025 407.016 370.605C406.116 371.186 405.441 372.055 405.1 373.07V378.88C405.235 379.893 405.709 380.831 406.445 381.54C407.182 382.25 408.137 382.688 409.155 382.784C410.173 382.881 411.193 382.629 412.049 382.071C412.906 381.512 413.548 380.68 413.87 379.71C413.911 379.527 413.9 379.337 413.838 379.16C413.776 378.983 413.666 378.827 413.52 378.71C413.313 378.568 413.061 378.509 412.813 378.544C412.565 378.579 412.339 378.706 412.18 378.9C412.068 379.551 411.71 380.135 411.18 380.53C410.744 380.786 410.246 380.918 409.74 380.91C409.094 380.98 408.445 380.801 407.926 380.409C407.408 380.017 407.058 379.441 406.95 378.8V376.99L414.24 377.05L414.26 374ZM412.41 375.5L406.82 375.37C406.82 374.93 406.82 374.49 406.82 374.05C406.918 373.353 407.269 372.716 407.806 372.261C408.343 371.806 409.029 371.564 409.732 371.582C410.436 371.599 411.109 371.874 411.623 372.355C412.137 372.836 412.456 373.489 412.52 374.19L412.41 375.5Z" fill="white"/>
<path d="M409.5 367.56L408.5 368.46C408.355 368.625 408.154 368.73 407.935 368.754C407.717 368.778 407.497 368.72 407.32 368.59C407.181 368.469 407.082 368.308 407.038 368.129C406.993 367.95 407.004 367.762 407.07 367.59L408.89 365.82C409.009 365.714 409.161 365.654 409.32 365.65C409.477 365.641 409.633 365.687 409.76 365.78L412.04 367.55C412.121 367.711 412.151 367.893 412.126 368.072C412.101 368.25 412.022 368.417 411.9 368.55C411.731 368.702 411.512 368.786 411.285 368.786C411.058 368.786 410.839 368.702 410.67 368.55L409.5 367.56Z" fill="white"/>
<path d="M411.5 366L409.71 364C409.574 363.85 409.493 363.659 409.481 363.457C409.469 363.255 409.525 363.055 409.642 362.89C409.758 362.724 409.927 362.604 410.121 362.547C410.316 362.491 410.523 362.503 410.71 362.58L412.41 364.58C412.531 364.73 412.602 364.914 412.612 365.107C412.622 365.3 412.57 365.49 412.464 365.652C412.359 365.813 412.204 365.937 412.024 366.005C411.843 366.073 411.646 366.082 411.46 366.03L411.5 366Z" fill="white"/>
</g>
<defs>
<clipPath id="clip0_1127_16917">
<rect width="595" height="450" fill="white"/>
</clipPath>
</defs>
</svg>
